<svg height="1.5rem" viewBox="0 0 60 60" style="enable-background:new 0 0 512 512; fill: #7a7a7a" width="1.5rem" xmlns="http://www.w3.org/2000/svg"><g id="039---Market-Investment" transform="translate(-1)"><path id="Shape" d="m27.29 14c-.1893127.1877666-.2957983.4433625-.2957983.71s.1064856.5222334.2957983.71c.7696372.620779 1.7216037.9720582 2.71 1v.58c0 .5522847.4477153 1 1 1s1-.4477153 1-1v-.58c1.6772521-.1049871 2.9875276-1.4895116 3-3.17 0-2.76-2.43-3.06-3.88-3.24-1.8-.23-2.12-.42-2.12-1.26 0-1.43 3.31-1.74 4.13-.39.2761424.48324912.8917508.65114231 1.375.37499995.4832491-.27614236.6511423-.8917508.375-1.37499995-.6635202-.97385583-1.7114462-1.61789374-2.88-1.77v-.59c0-.55228475-.4477153-1-1-1s-1 .44771525-1 1v.61c-1.6368447.16499375-2.9097833 1.49733616-3 3.14 0 2.76 2.43 3.06 3.88 3.24 1.8.23 2.12.42 2.12 1.26 0 1.09-1.25 1.25-2 1.25-.7957664.0603174-1.5917946-.1134879-2.29-.5-.1877666-.1893127-.4433625-.2957983-.71-.2957983s-.5222334.1064856-.71.2957983z"/><path id="Shape" d="m15.38 28c-1.57 7.83-1.33 6.62-1.36 6.87s-.02-.87-.02 5.13c.0027302.9724158.476617 1.8831896 1.2713829 2.4434995.7947658.5603099 1.8118124.7006442 2.7286171.3765005v7.18c-1.1045695 0-2 .8954305-2 2v6h-3c-.5522847 0-1 .4477153-1 1s.4477153 1 1 1h36c.5522847 0 1-.4477153 1-1s-.4477153-1-1-1h-3v-6c0-1.1045695-.8954305-2-2-2v-7.18c.9168047.3241437 1.9338513.1838094 2.7286171-.3765005.7947659-.5603099 1.2686527-1.4710837 1.2713829-2.4434995 0-6.51.28-3.72-1.38-12-.4752686-2.3283313-2.5236569-4.000485-4.9-4h-21.44c-2.3763431-.000485-4.4247314 1.6716687-4.9 4zm1.62 13c-.5522847 0-1-.4477153-1-1v-4h2v4c0 .5522847-.4477153 1-1 1zm5-5v4c0 .5522847-.4477153 1-1 1s-1-.4477153-1-1v-4zm4 0v4c0 .5522847-.4477153 1-1 1s-1-.4477153-1-1v-4zm4 0v4c0 .5522847-.4477153 1-1 1s-1-.4477153-1-1v-4zm4 0v4c0 .5522847-.4477153 1-1 1s-1-.4477153-1-1v-4zm4 0v4c0 .5522847-.4477153 1-1 1s-1-.4477153-1-1v-4zm4 0v4c0 .5522847-.4477153 1-1 1s-1-.4477153-1-1v-4zm-18 14v-7.18c1.0331277.3818047 2.1931916.149792 3-.6 1.1388026 1.018576 2.8611974 1.018576 4 0 1.1388026 1.018576 2.8611974 1.018576 4 0 .8079008.747655 1.9666858.9794119 3 .6v7.18zm-4-7.18c.6451023.2398017 1.3548977.2398017 2 0v7.18h-2zm-2 15.18v-6h26v6zm22-8v-7.18c.6451023.2398017 1.3548977.2398017 2 0v7.18zm6-10c0 .5522847-.4477153 1-1 1s-1-.4477153-1-1v-4h2zm-25.72-14h21.44c1.4288793.0006722 2.6589872 1.0090259 2.94 2.41l1.12 5.59h-29.56l1.12-5.59c.2810128-1.4009741 1.5111207-2.4093278 2.94-2.41z"/><path id="Shape" d="m56.29 47c0 .5522847.4477153 1 1 1h.71c.6491106 0 1.2807115-.2105336 1.8-.6.2858125-.2143594.4355547-.5649147.3928203-.9196152-.0427344-.3547006-.2714531-.6596589-.6-.8-.3285469-.1403412-.7070078-.0947442-.9928203.1196152-.36.27-.72.2-1.31.2-.5522847 0-1 .4477153-1 1z"/><path id="Shape" d="m49 10h-2c-.5522847 0-1 .4477153-1 1s.4477153 1 1 1h2c.5522847 0 1-.4477153 1-1s-.4477153-1-1-1z"/><path id="Shape" d="m53 12h2c.5522847 0 1-.4477153 1-1s-.4477153-1-1-1h-2c-.5522847 0-1 .4477153-1 1s.4477153 1 1 1z"/><path id="Shape" d="m60 21.86c-.5522847 0-1 .4477153-1 1v2c0 .5522847.4477153 1 1 1s1-.4477153 1-1v-2c0-.5522847-.4477153-1-1-1z"/><path id="Shape" d="m58.48 12.12c.3004235.1633331.4965586.4688512.52.81.0250086.3572656.2387164.6740507.5606218.8310255.3219053.1569747.7031032.1302908 1-.0700001.2968968-.2002908.4643868-.5437598.4393782-.9010254-.0715455-1.0177546-.6554398-1.929383-1.55-2.42-.4832492-.2761424-1.0988576-.1082492-1.375.375s-.1082492 1.0988576.375 1.375z"/><path id="Shape" d="m60 15.86c-.5522847 0-1 .4477153-1 1v2c0 .5522847.4477153 1 1 1s1-.4477153 1-1v-2c0-.5522847-.4477153-1-1-1z"/><path id="Shape" d="m60 27.86c-.5522847 0-1 .4477153-1 1v2c0 .5522847.4477153 1 1 1s1-.4477153 1-1v-2c0-.5522847-.4477153-1-1-1z"/><path id="Shape" d="m60 33.86c-.5522847 0-1 .4477153-1 1v2c0 .5522847.4477153 1 1 1s1-.4477153 1-1v-2c0-.5522847-.4477153-1-1-1z"/><path id="Shape" d="m60 39.86c-.5522847 0-1 .4477153-1 1v2c0 .5522847.4477153 1 1 1s1-.4477153 1-1v-2c0-.5522847-.4477153-1-1-1z"/><path id="Shape" d="m47.4 46.2c-.2518058.1888544-.4.4852427-.4.8s.1481942.6111456.4.8c4.27 3.2 4.14 3.2 4.6 3.2.4304304 0 .8125693-.2754301.9486833-.6837722.136114-.4083422-.004339-.8579696-.3486833-1.1162278l-1.6-1.2h2.29c.5522847 0 1-.4477153 1-1s-.4477153-1-1-1h-2.29l1.6-1.2c.4418278-.3313709.5313708-.9581722.2-1.4-.3313709-.4418278-.9581722-.5313708-1.4-.2z"/><path id="Shape" d="m1 18.86c0 .5522847.44771525 1 1 1s1-.4477153 1-1v-2c0-.5522847-.44771525-1-1-1s-1 .4477153-1 1z"/><path id="Shape" d="m2.56 10.37c-.89841366.4881227-1.48636537 1.4002016-1.56 2.42-.03445139.5453486.37522952 1.0173723.92 1.06.26540805.0220876.52866258-.0626086.73140109-.2353118.20273852-.1727031.32821036-.4191442.34859891-.6846882.02344142-.3411488.21957649-.6466669.52-.81.48324916-.2761424.65114237-.8917508.375-1.375s-.89175084-.6511424-1.375-.375z"/><path id="Shape" d="m1 24.86c0 .5522847.44771525 1 1 1s1-.4477153 1-1v-2c0-.5522847-.44771525-1-1-1s-1 .4477153-1 1z"/><path id="Shape" d="m1 30.86c0 .5522847.44771525 1 1 1s1-.4477153 1-1v-2c0-.5522847-.44771525-1-1-1s-1 .4477153-1 1z"/><path id="Shape" d="m4.71 46c-.64 0-1 .06-1.31-.2-.4418278-.3313708-1.06862915-.2418278-1.4.2s-.2418278 1.0686292.2 1.4c.73257703.5059918 1.62778679.7199862 2.51.6.55228475 0 1-.4477153 1-1s-.44771525-1-1-1z"/><path id="Shape" d="m1 36.86c0 .5522847.44771525 1 1 1s1-.4477153 1-1v-2c0-.5522847-.44771525-1-1-1s-1 .4477153-1 1z"/><path id="Shape" d="m20.05 12c.3899673 5.7742852 5.1875615 10.2588016 10.975 10.2588016s10.5850327-4.4845164 10.975-10.2588016h1c.5522847 0 1-.4477153 1-1s-.4477153-1-1-1h-1c-.5399341-5.64355329-5.2806771-9.95238366-10.95-9.95238366s-10.4100659 4.30883037-10.95 9.95238366h-1.1c-.5522847 0-1 .4477153-1 1s.4477153 1 1 1zm10.95-10c4.9705627 0 9 4.02943725 9 9 0 4.9705627-4.0294373 9-9 9s-9-4.0294373-9-9c0-4.97056275 4.0294373-9 9-9z"/><path id="Shape" d="m15 10h-2c-.5522847 0-1 .4477153-1 1s.4477153 1 1 1h2c.5522847 0 1-.4477153 1-1s-.4477153-1-1-1z"/><path id="Shape" d="m9 10h-2c-.55228475 0-1 .4477153-1 1s.44771525 1 1 1h2c.55228475 0 1-.4477153 1-1s-.44771525-1-1-1z"/><path id="Shape" d="m1 42.86c0 .5522847.44771525 1 1 1s1-.4477153 1-1v-2c0-.5522847-.44771525-1-1-1s-1 .4477153-1 1z"/><path id="Shape" d="m9.2 43.4c-.33137085.4418278-.2418278 1.0686292.2 1.4l1.6 1.2h-2.29c-.55228475 0-1 .4477153-1 1s.44771525 1 1 1h2.29l-1.6 1.2c-.4418278.3313708-.53137085.9581722-.2 1.4s.9581722.5313708 1.4.2l4-3c.2518058-.1888544.4-.4852427.4-.8s-.1481942-.6111456-.4-.8l-4-3c-.2121732-.1591299-.4788704-.2274568-.74142136-.1899495-.26255093.0375073-.49944875.1777763-.65857864.3899495z"/></g></svg>